<svg width="18" height="15" viewBox="0 0 18 15" fill="none" xmlns="http://www.w3.org/2000/svg">
<path d="M10.7928 1.27496H14.0331C14.2347 1.27496 14.3982 1.41134 14.3982 1.57955V13.4204C14.3982 13.5886 14.2347 13.725 14.0331 13.725H10.7928C10.5912 13.725 10.4277 13.5886 10.4277 13.4204V1.57955C10.4277 1.41134 10.5912 1.27496 10.7928 1.27496Z" fill="white"/>
<path d="M3.94713 1.27496H7.18738C7.38901 1.27496 7.55248 1.41134 7.55248 1.57955V13.4204C7.55248 13.5886 7.38901 13.725 7.18738 13.725H3.94713C3.74551 13.725 3.58203 13.5886 3.58203 13.4204V1.57955C3.58203 1.41134 3.74551 1.27496 3.94713 1.27496Z" fill="white"/>
</svg>
